<?xml version="1.0" encoding="UTF-8" standalone="no"?>
<!-- Created with Inkscape (http://www.inkscape.org/) -->

<svg
   xmlns:dc="http://purl.org/dc/elements/1.1/"
   xmlns:cc="http://creativecommons.org/ns#"
   xmlns:rdf="http://www.w3.org/1999/02/22-rdf-syntax-ns#"
   xmlns:svg="http://www.w3.org/2000/svg"
   xmlns="http://www.w3.org/2000/svg"
   xmlns:sodipodi="http://sodipodi.sourceforge.net/DTD/sodipodi-0.dtd"
   xmlns:inkscape="http://www.inkscape.org/namespaces/inkscape"
   id="svg2"
   version="1.1"
   inkscape:version="0.47 r22583"
   width="100"
   height="100"
   sodipodi:docname="WhiteDuck.svg">
  <metadata
     id="metadata8">
    <rdf:RDF>
      <cc:Work
         rdf:about="">
        <dc:format>image/svg+xml</dc:format>
        <dc:type
           rdf:resource="http://purl.org/dc/dcmitype/StillImage" />
        <dc:title />
      </cc:Work>
    </rdf:RDF>
  </metadata>
  <defs
     id="defs6">
    <inkscape:perspective
       sodipodi:type="inkscape:persp3d"
       inkscape:vp_x="0 : 0.5 : 1"
       inkscape:vp_y="0 : 1000 : 0"
       inkscape:vp_z="1 : 0.5 : 1"
       inkscape:persp3d-origin="0.5 : 0.33333333 : 1"
       id="perspective10" />
    <inkscape:perspective
       id="perspective3614"
       inkscape:persp3d-origin="0.5 : 0.33333333 : 1"
       inkscape:vp_z="1 : 0.5 : 1"
       inkscape:vp_y="0 : 1000 : 0"
       inkscape:vp_x="0 : 0.5 : 1"
       sodipodi:type="inkscape:persp3d" />
    <inkscape:perspective
       id="perspective3638"
       inkscape:persp3d-origin="0.5 : 0.33333333 : 1"
       inkscape:vp_z="1 : 0.5 : 1"
       inkscape:vp_y="0 : 1000 : 0"
       inkscape:vp_x="0 : 0.5 : 1"
       sodipodi:type="inkscape:persp3d" />
    <inkscape:perspective
       id="perspective3638-9"
       inkscape:persp3d-origin="0.5 : 0.33333333 : 1"
       inkscape:vp_z="1 : 0.5 : 1"
       inkscape:vp_y="0 : 1000 : 0"
       inkscape:vp_x="0 : 0.5 : 1"
       sodipodi:type="inkscape:persp3d" />
    <inkscape:perspective
       id="perspective3638-0"
       inkscape:persp3d-origin="0.5 : 0.33333333 : 1"
       inkscape:vp_z="1 : 0.5 : 1"
       inkscape:vp_y="0 : 1000 : 0"
       inkscape:vp_x="0 : 0.5 : 1"
       sodipodi:type="inkscape:persp3d" />
    <inkscape:perspective
       id="perspective3638-96"
       inkscape:persp3d-origin="0.5 : 0.33333333 : 1"
       inkscape:vp_z="1 : 0.5 : 1"
       inkscape:vp_y="0 : 1000 : 0"
       inkscape:vp_x="0 : 0.5 : 1"
       sodipodi:type="inkscape:persp3d" />
    <inkscape:perspective
       id="perspective3638-1"
       inkscape:persp3d-origin="0.5 : 0.33333333 : 1"
       inkscape:vp_z="1 : 0.5 : 1"
       inkscape:vp_y="0 : 1000 : 0"
       inkscape:vp_x="0 : 0.5 : 1"
       sodipodi:type="inkscape:persp3d" />
    <inkscape:perspective
       id="perspective3638-19"
       inkscape:persp3d-origin="0.5 : 0.33333333 : 1"
       inkscape:vp_z="1 : 0.5 : 1"
       inkscape:vp_y="0 : 1000 : 0"
       inkscape:vp_x="0 : 0.5 : 1"
       sodipodi:type="inkscape:persp3d" />
    <inkscape:perspective
       id="perspective3625"
       inkscape:persp3d-origin="0.5 : 0.33333333 : 1"
       inkscape:vp_z="1 : 0.5 : 1"
       inkscape:vp_y="0 : 1000 : 0"
       inkscape:vp_x="0 : 0.5 : 1"
       sodipodi:type="inkscape:persp3d" />
    <inkscape:perspective
       id="perspective3647"
       inkscape:persp3d-origin="0.5 : 0.33333333 : 1"
       inkscape:vp_z="1 : 0.5 : 1"
       inkscape:vp_y="0 : 1000 : 0"
       inkscape:vp_x="0 : 0.5 : 1"
       sodipodi:type="inkscape:persp3d" />
    <inkscape:perspective
       id="perspective3669"
       inkscape:persp3d-origin="0.5 : 0.33333333 : 1"
       inkscape:vp_z="1 : 0.5 : 1"
       inkscape:vp_y="0 : 1000 : 0"
       inkscape:vp_x="0 : 0.5 : 1"
       sodipodi:type="inkscape:persp3d" />
  </defs>
  <sodipodi:namedview
     pagecolor="#ffffff"
     bordercolor="#666666"
     borderopacity="1"
     objecttolerance="10"
     gridtolerance="10"
     guidetolerance="10"
     inkscape:pageopacity="0"
     inkscape:pageshadow="2"
     inkscape:window-width="1124"
     inkscape:window-height="802"
     id="namedview4"
     showgrid="false"
     inkscape:zoom="2"
     inkscape:cx="193"
     inkscape:cy="94"
     inkscape:window-x="0"
     inkscape:window-y="24"
     inkscape:window-maximized="0"
     inkscape:current-layer="svg2" />
  <g
     id="g3637">
    <g
       id="g3616">
      <path
         sodipodi:type="arc"
         style="color:#000000;fill:none;stroke:#a2b1fa;stroke-width:3.59820843000000012;stroke-linecap:round;stroke-linejoin:round;stroke-miterlimit:4;stroke-opacity:1;stroke-dasharray:none;stroke-dashoffset:0;marker:none;visibility:visible;display:inline;overflow:visible;enable-background:accumulate"
         id="path3613"
         sodipodi:cx="199.25"
         sodipodi:cy="202.5"
         sodipodi:rx="32.75"
         sodipodi:ry="10"
         d="m 232,202.5 a 32.75,10 0 1 1 -65.5,0 32.75,10 0 1 1 65.5,0 z"
         transform="matrix(1.0050764,0,0,0.69162518,-149.51147,-59.804098)" />
      <path
         sodipodi:type="arc"
         style="color:#000000;fill:none;stroke:#a2b1fa;stroke-width:2.31191682999999992;stroke-linecap:round;stroke-linejoin:round;stroke-miterlimit:4;stroke-opacity:1;stroke-dasharray:none;stroke-dashoffset:0;marker:none;visibility:visible;display:inline;overflow:visible;enable-background:accumulate"
         id="path3613-4"
         sodipodi:cx="199.25"
         sodipodi:cy="202.5"
         sodipodi:rx="32.75"
         sodipodi:ry="10"
         d="m 232,202.5 a 32.75,10 0 1 1 -65.5,0 32.75,10 0 1 1 65.5,0 z"
         transform="matrix(1.3922046,0,0,1.2094699,-225.89676,-164.41765)" />
      <path
         sodipodi:type="arc"
         style="color:#000000;fill:none;stroke:#a2b1fa;stroke-width:1.72233140000000007;stroke-linecap:round;stroke-linejoin:round;stroke-miterlimit:4;stroke-opacity:1;stroke-dasharray:none;stroke-dashoffset:0;marker:none;visibility:visible;display:inline;overflow:visible;enable-background:accumulate"
         id="path3613-4-7"
         sodipodi:cx="199.25"
         sodipodi:cy="202.5"
         sodipodi:rx="32.75"
         sodipodi:ry="10"
         d="m 232,202.5 a 32.75,10 0 1 1 -65.5,0 32.75,10 0 1 1 65.5,0 z"
         transform="matrix(1.7505717,0,0,1.7331222,-298.05141,-269.70724)" />
    </g>
    <g
       id="g3628">
      <path
         style="fill:#f5e016;fill-opacity:1;stroke:#000000;stroke-width:2.20000004999999987;stroke-linecap:butt;stroke-linejoin:miter;stroke-miterlimit:4;stroke-opacity:1;stroke-dasharray:none"
         d="M 50.10422,39.31099 C 62.98639,22.18929 46.67998,9.48478 37.17546,9.49568 25.28834,10.88793 19.86873,16.72659 19.23351,25.85452 c 5.37616,0.31504 8.87072,1.88449 10.02638,5.01319 -0.52127,4.44955 -3.00742,6.44301 -6.33245,7.38787 l 3.43008,3.95778 c -4.63103,3.8642 -8.32649,9.2487 -7.38786,22.16359 2.9658,12.66059 12.61804,15.59547 23.21899,17.15039 14.34165,1.81151 25.5867,-1.0219 34.3008,-7.65171 12.80354,-11.42796 12.49244,-39.20106 9.48962,-36.66517 -4.92718,4.16103 -30.64579,7.08709 -35.611,1.83667"
         id="path2822"
         sodipodi:nodetypes="cccccccccsc" />
      <path
         style="fill:none;stroke:#000000;stroke-width:2.20000005;stroke-linecap:butt;stroke-linejoin:miter;stroke-miterlimit:4;stroke-opacity:1;stroke-dasharray:none"
         d="m 43.50792,63.58539 c 9.78278,3.05149 19.79904,4.7799 31.66226,-3.95778 4.65312,-3.3093 5.15886,-7.14208 -2.90237,-5.01319 3.6299,-1.42009 2.71518,-7.76065 -3.95778,-3.69394 3.05525,-4.93585 -1.51841,-7.69981 -14.24802,-2.11081 l 0,0"
         id="path2824"
         sodipodi:nodetypes="cccccc" />
      <path
         style="fill:#e38100;fill-opacity:1;stroke:#000000;stroke-width:2.20000005;stroke-linecap:butt;stroke-linejoin:miter;stroke-miterlimit:4;stroke-opacity:1;stroke-dasharray:none"
         d="m 19.23351,26.38223 c 6.01739,0.15753 8.15356,2.25567 10.02638,4.48548 -1.23478,6.59234 -6.84509,8.18408 -12.92876,9.23483 -4.74654,-0.61705 -8.97975,-1.75462 -6.86015,-5.80475 l 7.38786,-5.54089 2.37467,-2.37467 z"
         id="path2826"
         sodipodi:nodetypes="cccccc" />
      <path
         sodipodi:type="arc"
         style="fill:#000000;fill-opacity:1;stroke:#000000;stroke-width:8.3380003;stroke-linecap:round;stroke-linejoin:round;stroke-miterlimit:4;stroke-opacity:1;stroke-dasharray:none"
         id="path2828"
         sodipodi:cx="140.5"
         sodipodi:cy="88.5"
         sodipodi:rx="13.5"
         sodipodi:ry="13.5"
         d="m 154,88.5 a 13.5,13.5 0 1 1 -27,0 13.5,13.5 0 1 1 27,0 z"
         transform="matrix(0.26385224,0,0,0.26385224,-1.61082,2.89938)" />
      <path
         sodipodi:type="arc"
         style="color:#000000;fill:#ffffff;fill-opacity:1;fill-rule:nonzero;stroke:#ffffcc;stroke-width:8.3380003;stroke-linecap:round;stroke-linejoin:round;stroke-miterlimit:4;stroke-opacity:1;stroke-dasharray:none;stroke-dashoffset:0;marker:none;visibility:visible;display:inline;overflow:visible;enable-background:accumulate"
         id="path3602"
         sodipodi:cx="141"
         sodipodi:cy="83.5"
         sodipodi:rx="4"
         sodipodi:ry="5.5"
         d="m 145,83.5 a 4,5.5 0 1 1 -8,0 4,5.5 0 1 1 8,0 z"
         transform="matrix(0.26385224,0,0,0.26385224,-1.61082,2.89938)" />
      <path
         sodipodi:type="arc"
         style="color:#000000;fill:#000000;fill-opacity:1;fill-rule:nonzero;stroke:#000000;stroke-width:8.3380003;stroke-linecap:round;stroke-linejoin:round;stroke-miterlimit:4;stroke-opacity:1;stroke-dasharray:none;stroke-dashoffset:0;marker:none;visibility:visible;display:inline;overflow:visible;enable-background:accumulate"
         id="path3604"
         sodipodi:cx="51.5"
         sodipodi:cy="123.5"
         sodipodi:rx="2.5"
         sodipodi:ry="2.5"
         d="m 54,123.5 a 2.5,2.5 0 1 1 -5,0 2.5,2.5 0 1 1 5,0 z"
         transform="matrix(0.26385224,0,0,0.26385224,1.81926,4.48249)" />
      <path
         sodipodi:type="arc"
         style="color:#000000;fill:#000000;fill-opacity:1;fill-rule:nonzero;stroke:#000000;stroke-width:8.3380003;stroke-linecap:round;stroke-linejoin:round;stroke-miterlimit:4;stroke-opacity:1;stroke-dasharray:none;stroke-dashoffset:0;marker:none;visibility:visible;display:inline;overflow:visible;enable-background:accumulate"
         id="path3604-2"
         sodipodi:cx="51.5"
         sodipodi:cy="123.5"
         sodipodi:rx="2.5"
         sodipodi:ry="2.5"
         d="m 54,123.5 a 2.5,2.5 0 1 1 -5,0 2.5,2.5 0 1 1 5,0 z"
         transform="matrix(0.26385224,0,0,0.26385224,-2.5343,2.76745)" />
    </g>
  </g>
</svg>
